<?xml version="1.0" standalone="no"?>
<!DOCTYPE svg PUBLIC "-//W3C//DTD SVG 20010904//EN"
 "http://www.w3.org/TR/2001/REC-SVG-20010904/DTD/svg10.dtd">
<svg version="1.0" xmlns="http://www.w3.org/2000/svg"
 width="456.000000pt" height="254.000000pt" viewBox="0 0 456.000000 254.000000"
 preserveAspectRatio="xMidYMid meet">

<g transform="translate(0.000000,254.000000) scale(0.100000,-0.100000)"
fill="#000000" stroke="none">
<path d="M1170 1863 c-36 -165 -168 -528 -250 -686 -40 -79 -40 -80 -40 -193
l0 -114 213 -2 212 -3 3 -137 3 -138 139 0 140 0 0 140 0 140 60 0 60 0 0 130
0 130 -60 0 -60 0 0 305 0 305 -80 0 c-44 0 -80 2 -80 5 0 3 9 38 20 77 11 40
20 78 20 85 0 10 -34 13 -143 13 l-144 0 -13 -57z m207 -310 c-58 -134 -68
-175 -70 -300 l-2 -123 -68 0 -67 0 68 138 c38 75 86 181 107 235 20 54 40 96
43 93 3 -3 -2 -23 -11 -43z"/>
<path d="M2177 1910 c-236 -42 -367 -220 -399 -539 -8 -90 -8 -146 1 -234 29
-286 132 -452 321 -518 91 -31 247 -31 340 1 188 64 292 231 321 515 15 143 0
319 -36 432 -52 165 -151 279 -280 321 -74 25 -198 35 -268 22z m191 -292 c18
-11 44 -39 57 -63 26 -44 60 -179 50 -196 -8 -11 -402 -12 -409 0 -11 17 14
127 41 180 16 30 40 64 54 74 56 40 145 42 207 5z m107 -467 c9 -16 -23 -150
-47 -194 -41 -75 -124 -110 -206 -87 -57 15 -95 50 -121 111 -23 53 -44 156
-35 170 7 12 401 11 409 0z"/>
<path d="M3135 1908 c-2 -7 -9 -33 -15 -58 -47 -187 -159 -495 -242 -663 l-48
-98 0 -109 0 -110 213 -2 212 -3 3 -138 3 -137 139 0 140 0 0 140 0 140 60 0
60 0 0 130 0 130 -60 0 -60 0 0 305 0 305 -81 0 c-73 0 -80 2 -74 18 6 15 35
147 35 158 0 2 -63 4 -140 4 -104 0 -142 -3 -145 -12z m175 -401 c-20 -56 -42
-112 -49 -124 -6 -13 -11 -69 -11 -137 l0 -116 -64 0 -64 0 64 127 c35 70 83
175 105 233 42 107 48 120 53 120 2 0 -13 -46 -34 -103z"/>
</g>
</svg>
